HIERARCHY
ROOT Hips
{
	OFFSET 0.00000 0.00000 0.00000
	CHANNELS 6 Xposition Yposition Zposition Zrotation Yrotation Xrotation 
	JOINT LHipJoint
	{
		OFFSET 0 0 0
		CHANNELS 3 Zrotation Yrotation Xrotation
		JOINT LeftUpLeg
		{
			OFFSET 1.28366 -1.58472 0.87544
			CHANNELS 3 Zrotation Yrotation Xrotation
			JOINT LeftLeg
			{
				OFFSET 2.18587 -6.00562 0.00000
				CHANNELS 3 Zrotation Yrotation Xrotation
				JOINT LeftFoot
				{
					OFFSET 2.39085 -6.56880 0.00000
					CHANNELS 3 Zrotation Yrotation Xrotation
					JOINT LeftToeBase
					{
						OFFSET 0.12003 -0.32979 2.03101
						CHANNELS 3 Zrotation Yrotation Xrotation
						End Site
						{
							OFFSET 0.00000 -0.00000 1.04074
						}
					}
				}
			}
		}
	}
	JOINT RHipJoint
	{
		OFFSET 0 0 0
		CHANNELS 3 Zrotation Yrotation Xrotation
		JOINT RightUpLeg
		{
			OFFSET -1.21795 -1.58472 0.87544
			CHANNELS 3 Zrotation Yrotation Xrotation
			JOINT RightLeg
			{
				OFFSET -2.22714 -6.11902 0.00000
				CHANNELS 3 Zrotation Yrotation Xrotation
				JOINT RightFoot
				{
					OFFSET -2.40306 -6.60235 0.00000
					CHANNELS 3 Zrotation Yrotation Xrotation
					JOINT RightToeBase
					{
						OFFSET -0.15519 -0.42640 1.91430
						CHANNELS 3 Zrotation Yrotation Xrotation
						End Site
						{
							OFFSET -0.00000 -0.00000 0.99082
						}
					}
				}
			}
		}
	}
	JOINT LowerBack
	{
		OFFSET 0 0 0
		CHANNELS 3 Zrotation Yrotation Xrotation
		JOINT Spine
		{
			OFFSET 0.01180 1.76430 -0.06387
			CHANNELS 3 Zrotation Yrotation Xrotation
			JOINT Spine1
			{
				OFFSET -0.00388 1.74651 0.09536
				CHANNELS 3 Zrotation Yrotation Xrotation
				JOINT Neck
				{
					OFFSET 0 0 0
					CHANNELS 3 Zrotation Yrotation Xrotation
					JOINT Neck1
					{
						OFFSET 0.04111 1.46174 0.14397
						CHANNELS 3 Zrotation Yrotation Xrotation
						JOINT Head
						{
							OFFSET 0.00502 1.44580 -0.31711
							CHANNELS 3 Zrotation Yrotation Xrotation
							End Site
							{
								OFFSET -0.00395 1.49251 -0.12327
							}
						}
					}
				}
				JOINT LeftShoulder
				{
					OFFSET 0 0 0
					CHANNELS 3 Zrotation Yrotation Xrotation
					JOINT LeftArm
					{
						OFFSET 2.70917 1.34870 -0.15417
						CHANNELS 3 Zrotation Yrotation Xrotation
						JOINT LeftForeArm
						{
							OFFSET 4.46610 -0.00000 -0.00000
							CHANNELS 3 Zrotation Yrotation Xrotation
							JOINT LeftHand
							{
								OFFSET 3.41414 -0.00000 0.00000
								CHANNELS 3 Zrotation Yrotation Xrotation
								JOINT LeftFingerBase
								{
									OFFSET 0 0 0
									CHANNELS 3 Zrotation Yrotation Xrotation
									JOINT LeftHandIndex1
									{
										OFFSET 0.32830 -0.00000 0.00000
										CHANNELS 3 Zrotation Yrotation Xrotation
										End Site
										{
											OFFSET 0.26468 -0.00000 0.00000
										}
									}
								}
								JOINT LThumb
								{
									OFFSET 0 0 0
									CHANNELS 3 Zrotation Yrotation Xrotation
									End Site
									{
										OFFSET 0.26872 -0.00000 0.26872
									}
								}
							}
						}
					}
				}
				JOINT RightShoulder
				{
					OFFSET 0 0 0
					CHANNELS 3 Zrotation Yrotation Xrotation
					JOINT RightArm
					{
						OFFSET -3.06316 1.13725 -0.10883
						CHANNELS 3 Zrotation Yrotation Xrotation
						JOINT RightForeArm
						{
							OFFSET -4.40431 -0.00000 0.00000
							CHANNELS 3 Zrotation Yrotation Xrotation
							JOINT RightHand
							{
								OFFSET -3.04688 -0.00000 0.00000
								CHANNELS 3 Zrotation Yrotation Xrotation
								JOINT RightFingerBase
								{
									OFFSET 0 0 0
									CHANNELS 3 Zrotation Yrotation Xrotation
									JOINT RightHandIndex1
									{
										OFFSET -0.50049 -0.00000 0.00000
										CHANNELS 3 Zrotation Yrotation Xrotation
										End Site
										{
											OFFSET -0.40351 -0.00000 0.00000
										}
									}
								}
								JOINT RThumb
								{
									OFFSET 0 0 0
									CHANNELS 3 Zrotation Yrotation Xrotation
									End Site
									{
										OFFSET -0.40967 -0.00000 0.40967
									}
								}
							}
						}
					}
				}
			}
		}
	}
}
MOTION
Frames: 14
Frame Time: .0083333
6.9024 15.7957 0.2915 -20.8860 -69.6475 26.7780 0.0000 0.0000 0.0000 0.1552 -14.7244 -10.1817 0.6521 5.1655 14.3813 0.1310 -1.6313 -6.4622 0.5227 -4.6334 -12.8659 0.0000 0.0000 0.0000 25.0412 5.8414 -9.0258 -1.3656 -7.3963 20.8948 1.6919 -24.7051 -21.0813 -0.1462 -2.4642 6.7903 2.4299 5.6897 -2.2870 -0.9760 7.5370 -1.7867 -2.1582 3.7461 -0.1191 4.0717 3.7937 -11.0076 8.1281 -2.1653 50.6507 3.1390 0.1525 24.3948 -0.0000 0.0000 0.0000 -85.9218 10.8066 18.1170 44.9929 -50.7650 -22.2333 -0.0000 -0.0000 3.5974 24.2248 22.5279 9.7808 -7.1250 0.0000 -0.0000 -5.0341 54.3674 -1.1610 -0.0000 0.0000 0.0000 86.9432 -10.0233 5.9529 -42.9974 49.7488 -20.6987 0.0000 -0.0000 -35.0588 -15.1522 8.3585 -2.2543 7.1250 -0.0000 -0.0000 8.4632 -21.3622 4.8511
6.9192 15.8001 0.3179 -20.6115 -69.7022 26.6147 0.0000 0.0000 0.0000 -0.0508 -14.7079 -10.3949 0.6614 5.2013 14.4835 0.1309 -1.7209 -6.4513 0.5055 -4.5575 -12.6507 0.0000 0.0000 0.0000 24.8097 6.2150 -8.9366 -1.3488 -7.3523 20.7633 1.7465 -24.9982 -21.2030 -0.1577 -2.5590 7.0531 2.3464 5.5828 -2.3262 -0.7000 7.3943 -1.7930 -1.8358 3.6752 -0.1584 4.0369 3.7649 -11.0817 8.9497 -2.6346 50.3845 3.5089 0.0641 24.2607 0.0000 -0.0000 0.0000 -86.2408 11.2186 18.1660 44.9334 -50.7358 -22.1871 -0.0000 -0.0000 3.6919 24.4463 22.6109 9.9139 -7.1250 0.0000 -0.0000 -4.8298 54.4993 -1.1292 0.0000 -0.0000 0.0000 86.7573 -9.9181 5.7544 -42.9630 49.7306 -20.6725 0.0000 -0.0000 -35.0425 -15.3215 8.4337 -2.3010 7.1250 -0.0000 -0.0000 8.3391 -21.2774 4.7946
6.9359 15.8045 0.3440 -20.3004 -69.7387 26.4216 0.0000 0.0000 0.0000 -0.2594 -14.6971 -10.6199 0.6704 5.2360 14.5829 0.1305 -1.8258 -6.4335 0.4903 -4.4894 -12.4579 0.0000 0.0000 0.0000 24.5732 6.5867 -8.8561 -1.3330 -7.3109 20.6397 1.8018 -25.2985 -21.3493 -0.1710 -2.6643 7.3454 2.2418 5.4645 -2.3635 -0.4281 7.2369 -1.8072 -1.5073 3.5970 -0.2077 4.0168 3.7251 -11.1604 9.7584 -3.1135 50.0844 3.8603 -0.0266 24.1110 -0.0000 -0.0000 0.0000 -86.5408 11.6382 18.2509 44.8847 -50.7119 -22.1495 -0.0000 -0.0000 3.7838 24.6603 22.7011 10.0474 -7.1250 0.0000 -0.0000 -4.6351 54.6375 -1.0992 -0.0000 -0.0000 0.0000 86.5773 -9.8122 5.5487 -42.9263 49.7112 -20.6445 0.0000 -0.0000 -35.0259 -15.4647 8.4792 -2.3360 7.1250 -0.0000 -0.0000 8.2346 -21.2239 4.7433
6.9524 15.8087 0.3700 -19.9480 -69.7554 26.1959 0.0000 0.0000 0.0000 -0.4711 -14.6950 -10.8577 0.6791 5.2693 14.6781 0.1298 -1.9456 -6.4080 0.4772 -4.4300 -12.2896 0.0000 0.0000 0.0000 24.3306 6.9535 -8.7875 -1.3183 -7.2722 20.5242 1.8586 -25.6078 -21.5145 -0.1854 -2.7731 7.6476 2.1181 5.3340 -2.3995 -0.1634 7.0635 -1.8301 -1.1767 3.5109 -0.2664 4.0036 3.6723 -11.2405 10.5611 -3.6041 49.7465 4.1972 -0.1214 23.9413 0.0000 0.0000 0.0000 -86.8164 12.0668 18.3684 44.8508 -50.6952 -22.1232 -0.0000 -0.0000 3.8733 24.7694 22.7526 10.1182 -7.1250 0.0000 -0.0000 -4.5372 54.7140 -1.0843 0.0000 0.0000 0.0000 86.4054 -9.7034 5.3359 -42.8849 49.6892 -20.6130 0.0000 -0.0000 -35.0159 -15.5690 8.4945 -2.3568 7.1250 -0.0000 -0.0000 8.1590 -21.2033 4.7027
6.9687 15.8128 0.3957 -19.5741 -69.7539 25.9554 0.0000 0.0000 0.0000 -0.6800 -14.6962 -11.1070 0.6875 5.3009 14.7687 0.1288 -2.0817 -6.3756 0.4660 -4.3783 -12.1436 0.0000 0.0000 0.0000 24.0875 7.3154 -8.7290 -1.3047 -7.2358 20.4160 1.9152 -25.9191 -21.7019 -0.2015 -2.8904 7.9738 1.9779 5.1934 -2.4353 0.0973 6.8769 -1.8598 -0.8416 3.4183 -0.3318 4.0002 3.6064 -11.3234 11.3536 -4.1033 49.3677 4.5162 -0.2190 23.7495 0.0000 0.0000 0.0000 -87.0665 12.5059 18.5217 44.8357 -50.6877 -22.1116 -0.0000 -0.0000 3.9454 24.7793 22.7787 10.1334 -7.1250 0.0000 -0.0000 -4.5353 54.7437 -1.0872 0.0000 0.0000 0.0000 86.2400 -9.5913 5.1099 -42.8397 49.6652 -20.5785 0.0000 -0.0000 -35.0115 -15.6215 8.4839 -2.3622 7.1250 -0.0000 -0.0000 8.1215 -21.2117 4.6792
6.9848 15.8169 0.4211 -19.1873 -69.7383 25.7068 0.0000 0.0000 0.0000 -0.8858 -14.7017 -11.3635 0.6955 5.3311 14.8554 0.1274 -2.2275 -6.3388 0.4568 -4.3356 -12.0229 0.0000 0.0000 0.0000 23.8450 7.6725 -8.6792 -1.2918 -7.2016 20.3139 1.9715 -26.2306 -21.9079 -0.2195 -3.0157 8.3225 1.8274 5.0471 -2.4670 0.3500 6.6833 -1.8976 -0.5095 3.3225 -0.4055 3.9988 3.5258 -11.4117 12.1469 -4.6151 48.9460 4.8238 -0.3215 23.5375 -0.0000 -0.0000 0.0000 -87.2863 12.9513 18.7131 44.8332 -50.6865 -22.1097 -0.0000 -0.0000 4.0004 24.6736 22.7356 10.0677 -7.1250 0.0000 -0.0000 -4.6323 54.6767 -1.1029 -0.0000 -0.0000 0.0000 86.0877 -9.4771 4.8616 -42.7890 49.6382 -20.5398 0.0000 -0.0000 -35.0086 -15.6221 8.4415 -2.3506 7.1250 -0.0000 -0.0000 8.1223 -21.2551 4.6715
7.0006 15.8208 0.4466 -18.7894 -69.7117 25.4482 0.0000 0.0000 0.0000 -1.0910 -14.7156 -11.6202 0.7034 5.3607 14.9404 0.1259 -2.3762 -6.3018 0.4487 -4.2976 -11.9153 0.0000 0.0000 0.0000 23.6012 8.0155 -8.6352 -1.2795 -7.1685 20.2157 2.0267 -26.5358 -22.1226 -0.2384 -3.1424 8.6755 1.6631 4.8974 -2.5022 0.5981 6.4851 -1.9360 -0.1738 3.2248 -0.4764 3.9867 3.4270 -11.5070 12.9492 -5.1414 48.4736 5.1254 -0.4316 23.3014 0.0000 -0.0000 0.0000 -87.4798 13.3980 18.9471 44.8461 -50.6928 -22.1196 -0.0000 -0.0000 4.0261 24.4653 22.6245 9.9280 -7.1250 0.0000 -0.0000 -4.8144 54.5174 -1.1277 0.0000 -0.0000 0.0000 85.9475 -9.3598 4.5836 -42.7409 49.6125 -20.5031 0.0000 -0.0000 -34.9977 -15.6119 8.3990 -2.3372 7.1250 -0.0000 -0.0000 8.1308 -21.2991 4.6683
7.0159 15.8245 0.4721 -18.4013 -69.6811 25.1938 0.0000 0.0000 0.0000 -1.2933 -14.7253 -11.8718 0.7115 5.3908 15.0267 0.1244 -2.5309 -6.2679 0.4413 -4.2624 -11.8162 0.0000 0.0000 0.0000 23.3612 8.3421 -8.5906 -1.2676 -7.1362 20.1195 2.0795 -26.8283 -22.3409 -0.2580 -3.2679 9.0256 1.4960 4.7454 -2.5243 0.8385 6.2846 -1.9807 0.1548 3.1262 -0.5576 3.9507 3.3113 -11.6064 13.7753 -5.6825 47.9522 5.4322 -0.5513 23.0466 -0.0000 -0.0000 0.0000 -87.6458 13.8526 19.2157 44.8717 -50.7055 -22.1394 -0.0000 -0.0000 4.0204 24.1855 22.4603 9.7360 -7.1250 0.0000 -0.0000 -5.0530 54.2883 -1.1556 -0.0000 -0.0000 0.0000 85.8280 -9.2458 4.2739 -42.6942 49.5875 -20.4676 0.0000 -0.0000 -34.9638 -15.5919 8.3673 -2.3254 7.1250 -0.0000 -0.0000 8.1461 -21.3326 4.6711
7.0307 15.8279 0.4977 -18.0213 -69.6465 24.9388 0.0000 0.0000 0.0000 -1.4945 -14.7332 -12.1144 0.7199 5.4219 15.1159 0.1230 -2.6898 -6.2387 0.4339 -4.2273 -11.7169 0.0000 0.0000 0.0000 23.1248 8.6475 -8.5420 -1.2557 -7.1040 20.0237 2.1292 -27.1054 -22.5617 -0.2780 -3.3912 9.3698 1.3279 4.5919 -2.5277 1.0710 6.0826 -2.0309 0.4748 3.0271 -0.6513 3.8835 3.1792 -11.7137 14.6324 -6.2371 47.3808 5.7498 -0.6815 22.7781 0.0000 -0.0000 0.0000 -87.7807 14.3156 19.5247 44.9126 -50.7256 -22.1711 -0.0000 -0.0000 3.9784 23.8937 22.2690 9.5300 -7.1250 0.0000 -0.0000 -5.2937 54.0292 -1.1774 0.0000 -0.0000 0.0000 85.7299 -9.1390 3.9330 -42.6540 49.5660 -20.4370 0.0000 -0.0000 -34.9065 -15.5776 8.3508 -2.3186 7.1250 -0.0000 -0.0000 8.1568 -21.3502 4.6740
7.0448 15.8310 0.5236 -17.6725 -69.6150 24.7003 0.0000 0.0000 0.0000 -1.6905 -14.7336 -12.3401 0.7288 5.4547 15.2100 0.1217 -2.8484 -6.2197 0.4263 -4.1905 -11.6133 0.0000 0.0000 0.0000 22.8978 8.9301 -8.4839 -1.2437 -7.0713 19.9269 2.1754 -27.3622 -22.7738 -0.2976 -3.5076 9.6953 1.1584 4.4412 -2.5181 1.3002 5.8848 -2.0813 0.7921 2.9304 -0.7497 3.7795 3.0312 -11.8304 15.5259 -6.8028 46.7566 6.0826 -0.8223 22.4977 -0.0000 0.0000 0.0000 -87.8945 14.7769 19.8726 44.9632 -50.7504 -22.2103 -0.0000 -0.0000 3.9059 23.6219 22.0815 9.3364 -7.1250 0.0000 -0.0000 -5.5138 53.7789 -1.1929 -0.0000 0.0000 0.0000 85.6509 -9.0426 3.5625 -42.6302 49.5533 -20.4189 0.0000 -0.0000 -34.8309 -15.5787 8.3464 -2.3175 7.1250 -0.0000 -0.0000 8.1562 -21.3548 4.6728
7.0586 15.8338 0.5492 -17.3399 -69.5782 24.4702 0.0000 0.0000 0.0000 -1.8800 -14.7276 -12.5622 0.7383 5.4893 15.3096 0.1205 -3.0168 -6.2059 0.4182 -4.1511 -11.5021 0.0000 0.0000 0.0000 22.6793 9.1978 -8.4208 -1.2317 -7.0382 19.8285 2.2197 -27.6094 -22.9867 -0.3173 -3.6212 10.0134 0.9858 4.2889 -2.4880 1.5251 5.6854 -2.1357 1.1060 2.8333 -0.8608 3.6313 2.8682 -11.9605 16.4609 -7.3774 46.0794 6.4357 -0.9742 22.2108 0.0000 0.0000 0.0000 -87.9856 15.2375 20.2586 45.0306 -50.7834 -22.2624 -0.0000 -0.0000 3.8073 23.3959 21.9219 9.1756 -7.1250 0.0000 -0.0000 -5.6945 53.5677 -1.2028 0.0000 0.0000 0.0000 85.5871 -8.9556 3.1725 -42.6269 49.5515 -20.4164 0.0000 -0.0000 -34.7504 -15.6096 8.3473 -2.3226 7.1250 -0.0000 -0.0000 8.1339 -21.3523 4.6602
7.0719 15.8363 0.5748 -17.0327 -69.5364 24.2581 0.0000 0.0000 0.0000 -2.0596 -14.7092 -12.7829 0.7483 5.5256 15.4139 0.1192 -3.2006 -6.1957 0.4087 -4.1040 -11.3693 0.0000 0.0000 0.0000 22.4721 9.4452 -8.3565 -1.2195 -7.0045 19.7287 2.2617 -27.8429 -23.1931 -0.3366 -3.7286 10.3144 0.8096 4.1338 -2.4415 1.7486 5.4829 -2.1936 1.4201 2.7351 -0.9822 3.4553 2.6987 -12.0863 17.4264 -7.9418 45.3465 6.8008 -1.1283 21.9046 0.0000 0.0000 0.0000 -88.0530 15.7017 20.6773 45.1203 -50.8273 -22.3320 -0.0000 -0.0000 3.7005 23.2154 21.8093 9.0540 -7.1250 0.0000 -0.0000 -5.8434 53.4150 -1.2126 0.0000 0.0000 0.0000 85.5331 -8.8814 2.7777 -42.6467 49.5621 -20.4315 0.0000 -0.0000 -34.6795 -15.6609 8.3476 -2.3307 7.1250 -0.0000 -0.0000 8.0968 -21.3496 4.6391
7.0850 15.8385 0.6002 -16.7474 -69.4901 24.0610 0.0000 0.0000 0.0000 -2.2307 -14.6811 -13.0002 0.7586 5.5625 15.5202 0.1178 -3.3966 -6.1886 0.3980 -4.0506 -11.2190 0.0000 0.0000 0.0000 22.2741 9.6664 -8.2949 -1.2073 -6.9709 19.6291 2.3007 -28.0584 -23.3870 -0.3553 -3.8293 10.5969 0.6307 3.9774 -2.3765 1.9693 5.2790 -2.2554 1.7327 2.6366 -1.1151 3.2554 2.5226 -12.2146 18.4211 -8.4972 44.5599 7.1769 -1.2850 21.5867 -0.0000 -0.0000 0.0000 -88.0934 16.1800 21.1360 45.2530 -50.8918 -22.4349 -0.0000 -0.0000 3.5864 23.0625 21.7573 8.9684 -7.1250 0.0000 -0.0000 -5.9831 53.3314 -1.2295 -0.0000 -0.0000 0.0000 85.4881 -8.8245 2.3802 -42.6960 49.5885 -20.4690 0.0000 -0.0000 -34.6276 -15.7298 8.3332 -2.3375 7.1250 -0.0000 -0.0000 8.0476 -21.3612 4.6082
7.0978 15.8405 0.6255 -16.4822 -69.4416 23.8788 0.0000 0.0000 0.0000 -2.3942 -14.6436 -13.2139 0.7690 5.5994 15.6265 0.1161 -3.6030 -6.1821 0.3864 -3.9915 -11.0529 0.0000 0.0000 0.0000 22.0839 9.8621 -8.2385 -1.1954 -6.9376 19.5307 2.3369 -28.2557 -23.5641 -0.3729 -3.9222 10.8579 0.4479 3.8202 -2.2988 2.1862 5.0742 -2.3191 2.0441 2.5383 -1.2544 3.0468 2.3456 -12.3364 19.4299 -9.0266 43.7160 7.5532 -1.4362 21.2449 -0.0000 -0.0000 0.0000 -88.1114 16.6608 21.6215 45.4180 -50.9716 -22.5630 -0.0000 -0.0000 3.4881 22.8277 21.7074 8.8492 -7.1250 0.0000 -0.0000 -6.2069 53.2350 -1.2611 -0.0000 -0.0000 0.0000 85.4492 -8.7817 1.9877 -42.7708 49.6284 -20.5259 0.0000 -0.0000 -34.6059 -15.8157 8.2938 -2.3399 7.1250 -0.0000 -0.0000 7.9867 -21.3975 4.5660
